<svg xmlns="http://www.w3.org/2000/svg" viewBox="0 0 338.13 300"><defs><style>.cls-1{fill:#353535;}</style></defs><g id="Admin_Portal" data-name="Admin Portal"><path class="cls-1" d="M169.06,31.21a16.09,16.09,0,1,0,16.1,16.09A16.1,16.1,0,0,0,169.06,31.21Zm0,24.13a8,8,0,1,1,8.05-8A8,8,0,0,1,169.06,55.34Zm137.33,19a4,4,0,0,0-2.47-3.64l-131.1-57a9.4,9.4,0,0,0-7.5,0l-131.11,57a4.06,4.06,0,0,0-2.47,3.76V87.6a14.77,14.77,0,0,0,14.75,14.75h3.17a15.28,15.28,0,0,0,13.46,22.53,15.5,15.5,0,0,0,3.49-.42v114.7c-5.23-.73-10.19,2.92-10.19,8.31v7.63H46.49a14.76,14.76,0,0,0-14.75,14.75v10.52a6.72,6.72,0,0,0,6.71,6.71H299.68a6.72,6.72,0,0,0,6.71-6.71V269.85a14.76,14.76,0,0,0-14.75-14.75h-9.93v-7.63c0-5.64-5-8.87-10.19-8.31V124.46a15.5,15.5,0,0,0,3.49.42,15.28,15.28,0,0,0,13.46-22.53h3.17A14.77,14.77,0,0,0,306.39,87.6V74.32ZM63.12,116.83a7.24,7.24,0,0,1,0-14.48h43.48A7.24,7.24,0,1,1,99.47,111a4,4,0,0,0-7.89,1.56A15.19,15.19,0,0,0,95,119.62v69.44a4,4,0,0,0,8,0v-64.6a15.57,15.57,0,0,0,3.49.42,15.31,15.31,0,0,0,15.29-15.29,15.11,15.11,0,0,0-1.83-7.24h13.85a15.11,15.11,0,0,0-1.83,7.24,15.31,15.31,0,0,0,15.29,15.29,15.5,15.5,0,0,0,3.49-.42v114.7c-5.23-.74-10.2,2.92-10.2,8.31v7.63H113.28v-7.63c0-5.64-5-8.87-10.19-8.31V207.84a4,4,0,1,0-8,0v31.32H74.65V119.62a15.19,15.19,0,0,0,3.46-7.05A4,4,0,1,0,70.22,111a7.25,7.25,0,0,1-7.1,5.82Zm141.13-14.48H218.1a15.11,15.11,0,0,0-1.83,7.24,15.31,15.31,0,0,0,15.29,15.29,15.57,15.57,0,0,0,3.49-.42v114.7c-5.24-.74-10.2,2.92-10.2,8.31v7.63H197.5v-7.63c0-5.64-5-8.87-10.2-8.31V124.46a15.5,15.5,0,0,0,3.49.42,15.31,15.31,0,0,0,15.29-15.29,15.11,15.11,0,0,0-1.83-7.24Zm-14.8,145.12v7.63H148.68v-7.63a.27.27,0,0,1,.27-.27h40.23A.27.27,0,0,1,189.45,247.47Zm1.34-130.64a7.25,7.25,0,0,1-7.1-5.82,4,4,0,0,0-7.89,1.56,15.19,15.19,0,0,0,3.46,7.05V239.16H158.87V119.62a15.19,15.19,0,0,0,3.46-7.05,4,4,0,1,0-7.89-1.56,7.24,7.24,0,1,1-7.12-8.66h43.49a7.24,7.24,0,0,1,0,14.48ZM64.46,247.47a.27.27,0,0,1,.27-.27H105a.27.27,0,0,1,.27.27v7.63H64.46Zm227.18,15.67a6.72,6.72,0,0,1,6.7,6.71V279H39.79v-9.18a6.71,6.71,0,0,1,6.7-6.71ZM273.4,247.2a.27.27,0,0,1,.27.27v7.63H232.9v-7.63a.27.27,0,0,1,.27-.27ZM275,116.83a7.25,7.25,0,0,1-7.1-5.82,4,4,0,0,0-7.89,1.56,15.19,15.19,0,0,0,3.46,7.05V239.16H243.09V119.62a15.19,15.19,0,0,0,3.46-7.05,4,4,0,1,0-7.89-1.56,7.24,7.24,0,1,1-7.12-8.66H275a7.24,7.24,0,0,1,0,14.48ZM298.34,87.6a6.71,6.71,0,0,1-6.7,6.7H46.49a6.71,6.71,0,0,1-6.7-6.7V78.41H227.64a4,4,0,0,0,0-8H55.12L168.53,21.08a1.33,1.33,0,0,1,1.07,0L283,70.36h-36.6a4,4,0,0,0,0,8h51.93V87.6Z"/></g></svg>