<?xml version="1.0" encoding="UTF-8"?>
<!DOCTYPE svg PUBLIC "-//W3C//DTD SVG 1.1//EN" "http://www.w3.org/Graphics/SVG/1.1/DTD/svg11.dtd">
<svg xmlns="http://www.w3.org/2000/svg" xmlns:xlink="http://www.w3.org/1999/xlink" xml:space="preserve" width="176.389mm" height="176.389mm" version="1.1" style="shape-rendering:geometricPrecision; text-rendering:geometricPrecision; image-rendering:optimizeQuality; fill-rule:evenodd; clip-rule:evenodd" viewBox="0 0 17639 17639">
 <defs>
  <style type="text/css">
   <![CDATA[
    .fil1 {fill:none}
    .fil0 {fill:#D04525}
   ]]>
  </style>
 </defs>
 <g id="Layer_x0020_1">
  
  <path class="fil0" d="M3457 4868l6169 -1132 0 10167 -6171 -916 2 -8119zm6421 2152l5 -636 3452 1 0 5539 -3457 0 2 -565 2397 0 0 -493 -2399 0 0 -424 2399 0 0 -458 -2399 0 0 -460c1526,249 1821,-792 1799,-1269l-1341 0 0 -1305c-158,19 -334,30 -458,70zm0 -1307l4235 2 -2 5045 -388 0 0 -4692 -3845 0 0 -355zm-7797 9880l13478 0 -2 -13476 -13476 0 0 13476z" style="fill: #D04525;"/>
  <path class="fil0" d="M6303 7731c490,-47 729,32 706,552 -20,445 -268,528 -713,503l7 -1055zm-593 -592l-13 3427 579 37 18 -1189c481,-45 852,-53 1100,-326 228,-251 341,-698 287,-1145 -134,-1091 -1003,-822 -1971,-804z" style="fill: #D04525;"/>
  <path class="fil0" d="M10548 8043l1305 0c0,-740 -388,-1270 -1303,-1270l-2 1270z" style="fill: #D04525;"/>
  <path class="fil1" d="M6296 8786c445,25 693,-58 713,-503 23,-520 -216,-599 -706,-552l-7 1055z" style="fill: none;"/>
 </g>

	<metadata>
		<rdf:RDF xmlns:rdf="http://www.w3.org/1999/02/22-rdf-syntax-ns#" xmlns:rdfs="http://www.w3.org/2000/01/rdf-schema#" xmlns:dc="http://purl.org/dc/elements/1.1/">
			<rdf:Description about="https://iconscout.com/legal#licenses" dc:title="microsoft_office_power_point" dc:description="microsoft_office_power_point" dc:publisher="Iconscout" dc:date="2017-04-21" dc:format="image/svg+xml" dc:language="en">
				<dc:creator>
					<rdf:Bag>
						<rdf:li>Alexander Panasovsky</rdf:li>
					</rdf:Bag>
				</dc:creator>
			</rdf:Description>
		</rdf:RDF>
    </metadata></svg>
